<?xml version="1.0"?>
<svg xmlns="http://www.w3.org/2000/svg" xmlns:xlink="http://www.w3.org/1999/xlink" xmlns:svgjs="http://svgjs.com/svgjs" version="1.1" width="512" height="512" x="0" y="0" viewBox="0 0 24 24" style="enable-background:new 0 0 512 512" xml:space="preserve" class=""><g><path d="m9.99877 19.75h4.00003c0 1-.717 2-2 2s-2.00003-1-2.00003-2zm10.24203-4.2251-1.106-1.8459c-.419-.699-.64-1.4991-.64-2.3121v-2.62691c0-3.579-2.914-6.48999-6.495-6.48999-3.58103 0-6.49504 2.91099-6.49504 6.48999v2.62691c0 .813-.221 1.6131-.64 2.3121l-1.106 1.8459c-.338.562-.34599 1.24-.02199 1.812s.90999.9131 1.56699.9131h13.39404c.658 0 1.244-.3421 1.568-.9131.321-.571.313-1.249-.025-1.812z" fill="#737171" data-original="#000000" class=""/></g></svg>
